<svg width="52" height="52" viewBox="0 0 52 52" fill="none" xmlns="http://www.w3.org/2000/svg">
<path d="M47.7093 50.5748L33.7593 44.0925C31.8171 43.19 32.4604 40.2788 34.6021 40.2788L40.2188 40.2788C41.3233 40.2788 42.2188 39.3834 42.2188 38.2788L42.2188 23.5128C42.2188 22.4083 41.3233 21.5128 40.2188 21.5128L34.6021 21.5128C32.4604 21.5128 31.8171 18.6016 33.7593 17.6991L47.7093 11.2168C49.035 10.6008 50.5521 11.5687 50.5521 13.0306L50.5521 48.7611C50.5521 50.2229 49.035 51.1908 47.7093 50.5748Z" fill="black" stroke="black" stroke-width="1.10417"/>
<path d="M3.39491 11.2168L17.3449 17.6991C19.2871 18.6016 18.6437 21.5128 16.502 21.5128H10.8854C9.78086 21.5128 8.88543 22.4083 8.88543 23.5128V38.2788C8.88543 39.3834 9.78086 40.2788 10.8854 40.2788H16.502C18.6437 40.2788 19.2871 43.19 17.3449 44.0925L3.39491 50.5748C2.06922 51.1908 0.552094 50.2229 0.552094 48.7611V13.0306C0.552094 11.5687 2.06922 10.6008 3.39491 11.2168Z" fill="black" stroke="black" stroke-width="1.10417"/>
</svg>
