<svg width="278" height="52" viewBox="0 0 278 52" fill="none" xmlns="http://www.w3.org/2000/svg">
<path d="M81.6818 42.4707C79.7401 42.4707 78.0239 42.0196 76.5334 41.1174C75.0624 40.2152 73.915 38.96 73.0913 37.3517C72.2676 35.7435 71.8557 33.8705 71.8557 31.7326C71.8557 29.5948 72.2676 27.7316 73.0913 26.143C73.915 24.5347 75.0624 23.2795 76.5334 22.3773C78.0239 21.4751 79.7401 21.024 81.6818 21.024C83.8588 21.024 85.7318 21.5732 87.3009 22.6715C88.8895 23.7502 90.027 25.2408 90.7135 27.1432L87.1243 28.4671C86.6929 27.2707 86.0064 26.3391 85.065 25.6723C84.1432 25.0054 83.0154 24.672 81.6818 24.672C80.4658 24.672 79.3969 24.9564 78.475 25.5252C77.5729 26.0939 76.8766 26.9079 76.3863 27.967C75.9156 29.0065 75.6802 30.2617 75.6802 31.7326C75.6802 33.2036 75.9156 34.4686 76.3863 35.5277C76.8766 36.5868 77.5729 37.4008 78.475 37.9695C79.3969 38.5383 80.4658 38.8227 81.6818 38.8227C83.0154 38.8227 84.1432 38.4893 85.065 37.8225C86.0064 37.1556 86.6929 36.224 87.1243 35.0276L90.7135 36.3221C90.027 38.2245 88.8895 39.7249 87.3009 40.8232C85.7318 41.9215 83.8588 42.4707 81.6818 42.4707ZM91.4855 42L99.7229 21.4947H102.577L110.814 42H106.666L101.194 27.1138L95.6337 42H91.4855ZM96.8987 37.999L98.0755 34.5863H104.254L105.489 37.999H96.8987ZM113.045 42V21.4947H119.811C121.478 21.4947 122.822 21.7399 123.842 22.2302C124.862 22.7009 125.607 23.3874 126.078 24.2895C126.568 25.1721 126.813 26.2214 126.813 27.4374C126.813 29.3203 126.274 30.7814 125.195 31.8209C124.136 32.8408 122.616 33.4095 120.635 33.5272C120.184 33.5468 119.723 33.5566 119.252 33.5566C118.782 33.5566 118.38 33.5566 118.046 33.5566H116.84V42H113.045ZM124.195 42L119.046 33.1154L122.93 32.6446L128.578 42H124.195ZM116.84 30.144H119.429C120.076 30.144 120.664 30.0754 121.194 29.9381C121.743 29.7812 122.184 29.5164 122.518 29.1437C122.851 28.7515 123.018 28.2023 123.018 27.4963C123.018 26.7706 122.851 26.2214 122.518 25.8488C122.184 25.4761 121.743 25.231 121.194 25.1133C120.664 24.976 120.076 24.9074 119.429 24.9074H116.84V30.144ZM131.001 42V21.4947H136.973C140.386 21.4947 143.024 22.3969 144.887 24.2013C146.75 26.0057 147.682 28.575 147.682 31.9092C147.682 35.1649 146.76 37.6655 144.916 39.4111C143.073 41.137 140.415 42 136.944 42H131.001ZM134.796 38.4991H136.561C138.111 38.4991 139.425 38.303 140.503 37.9107C141.582 37.5185 142.406 36.832 142.975 35.8514C143.563 34.8707 143.857 33.5076 143.857 31.7621C143.857 30.0754 143.573 28.7417 143.004 27.761C142.455 26.7608 141.661 26.0547 140.621 25.6428C139.601 25.2114 138.366 24.9956 136.914 24.9956H134.796V38.4991ZM159.827 42.4707C157.885 42.4707 156.169 42.0196 154.679 41.1174C153.208 40.2152 152.06 38.96 151.236 37.3517C150.413 35.7435 150.001 33.8705 150.001 31.7326C150.001 29.5948 150.413 27.7316 151.236 26.143C152.06 24.5347 153.208 23.2795 154.679 22.3773C156.169 21.4751 157.885 21.024 159.827 21.024C162.004 21.024 163.877 21.5732 165.446 22.6715C167.035 23.7502 168.172 25.2408 168.859 27.1432L165.27 28.4671C164.838 27.2707 164.152 26.3391 163.21 25.6723C162.288 25.0054 161.161 24.672 159.827 24.672C158.611 24.672 157.542 24.9564 156.62 25.5252C155.718 26.0939 155.022 26.9079 154.531 27.967C154.061 29.0065 153.825 30.2617 153.825 31.7326C153.825 33.2036 154.061 34.4686 154.531 35.5277C155.022 36.5868 155.718 37.4008 156.62 37.9695C157.542 38.5383 158.611 38.8227 159.827 38.8227C161.161 38.8227 162.288 38.4893 163.21 37.8225C164.152 37.1556 164.838 36.224 165.27 35.0276L168.859 36.3221C168.172 38.2245 167.035 39.7249 165.446 40.8232C163.877 41.9215 162.004 42.4707 159.827 42.4707ZM180.685 42.4707C178.743 42.4707 177.027 42.0294 175.536 41.1468C174.065 40.2446 172.918 38.9894 172.094 37.3812C171.271 35.7729 170.859 33.8999 170.859 31.7621C170.859 29.6046 171.271 27.7218 172.094 26.1135C172.918 24.5053 174.065 23.2599 175.536 22.3773C177.027 21.4751 178.743 21.024 180.685 21.024C182.646 21.024 184.362 21.4751 185.833 22.3773C187.324 23.2599 188.481 24.5053 189.305 26.1135C190.128 27.7218 190.54 29.6046 190.54 31.7621C190.54 33.8999 190.119 35.7729 189.275 37.3812C188.451 38.9894 187.294 40.2446 185.804 41.1468C184.333 42.0294 182.626 42.4707 180.685 42.4707ZM180.655 38.8227C181.911 38.8227 182.979 38.5383 183.862 37.9695C184.764 37.3812 185.461 36.5574 185.951 35.4983C186.441 34.4392 186.686 33.1938 186.686 31.7621C186.686 30.3107 186.441 29.0555 185.951 27.9964C185.461 26.9373 184.764 26.1234 183.862 25.5546C182.979 24.9662 181.911 24.672 180.655 24.672C179.459 24.672 178.4 24.9564 177.478 25.5252C176.576 26.0939 175.88 26.9079 175.389 27.967C174.919 29.0261 174.683 30.2911 174.683 31.7621C174.683 33.2134 174.919 34.4686 175.389 35.5277C175.88 36.5868 176.576 37.4008 177.478 37.9695C178.4 38.5383 179.459 38.8227 180.655 38.8227ZM193.661 42V21.4947H197.574L207.135 37.0281H206.193V21.4947H209.989V42H206.046L196.514 26.4372H197.456V42H193.661ZM222.946 42.4707C221.005 42.4707 219.289 42.0294 217.798 41.1468C216.327 40.2446 215.18 38.9894 214.356 37.3812C213.532 35.7729 213.12 33.8999 213.12 31.7621C213.12 29.6046 213.532 27.7218 214.356 26.1135C215.18 24.5053 216.327 23.2599 217.798 22.3773C219.289 21.4751 221.005 21.024 222.946 21.024C224.908 21.024 226.624 21.4751 228.095 22.3773C229.585 23.2599 230.743 24.5053 231.566 26.1135C232.39 27.7218 232.802 29.6046 232.802 31.7621C232.802 33.8999 232.38 35.7729 231.537 37.3812C230.713 38.9894 229.556 40.2446 228.065 41.1468C226.594 42.0294 224.888 42.4707 222.946 42.4707ZM222.917 38.8227C224.172 38.8227 225.241 38.5383 226.124 37.9695C227.026 37.3812 227.722 36.5574 228.212 35.4983C228.703 34.4392 228.948 33.1938 228.948 31.7621C228.948 30.3107 228.703 29.0555 228.212 27.9964C227.722 26.9373 227.026 26.1234 226.124 25.5546C225.241 24.9662 224.172 24.672 222.917 24.672C221.721 24.672 220.661 24.9564 219.74 25.5252C218.837 26.0939 218.141 26.9079 217.651 27.967C217.18 29.0261 216.945 30.2911 216.945 31.7621C216.945 33.2134 217.18 34.4686 217.651 35.5277C218.141 36.5868 218.837 37.4008 219.74 37.9695C220.661 38.5383 221.721 38.8227 222.917 38.8227ZM235.922 42V21.4947H241.483L246.896 36.3809H246.219L251.603 21.4947H257.163V42H253.368V25.937L253.721 25.9959L248.396 40.2054H244.719L239.394 25.9959L239.717 25.937V42H235.922ZM266.473 42V33.9685L259.265 21.4947H263.619L268.267 30.2028L273.092 21.4947H277.417L270.268 33.9685V42H266.473Z" fill="black"/>
<path d="M47.7093 50.5748L33.7593 44.0925C31.8171 43.19 32.4604 40.2788 34.6021 40.2788L42.2188 40.2788L42.2188 21.5128L34.6021 21.5128C32.4604 21.5128 31.8171 18.6016 33.7593 17.6991L47.7093 11.2168C49.035 10.6008 50.5521 11.5687 50.5521 13.0306L50.5521 48.7611C50.5521 50.2229 49.035 51.1908 47.7093 50.5748Z" fill="black" stroke="black" stroke-width="1.10417"/>
<path d="M3.3949 11.2168L17.3449 17.6991C19.2871 18.6016 18.6437 21.5128 16.502 21.5128H8.88542V40.2788H16.502C18.6437 40.2788 19.2871 43.19 17.3448 44.0925L3.3949 50.5748C2.06921 51.1908 0.552086 50.2229 0.552086 48.7611V13.0306C0.552086 11.5687 2.06921 10.6008 3.3949 11.2168Z" fill="black" stroke="black" stroke-width="1.10417"/>
</svg>
