<?xml version="1.0"?>


<svg xmlns:dc="http://purl.org/dc/elements/1.1/" xmlns:cc="http://creativecommons.org/ns#" xmlns:rdf="http://www.w3.org/1999/02/22-rdf-syntax-ns#" xmlns:svg="http://www.w3.org/2000/svg" xmlns="http://www.w3.org/2000/svg" xmlns:sodipodi="http://sodipodi.sourceforge.net/DTD/sodipodi-0.dtd" xmlns:inkscape="http://www.inkscape.org/namespaces/inkscape" width="468" height="159" id="svg2" version="1.1">
  <defs id="defs4"></defs>
  <namedview id="base" pagecolor="#ffffff" bordercolor="#666666" borderopacity="1.0" showgrid="false" showguides="true"></namedview>
  <metadata id="metadata7">
    <RDF>
      <Work>
        <format>image/svg+xml</format>
        <type></type>
        <title></title>
      </Work>
    </RDF>
  </metadata>
  <g id="layer1" transform="translate(0,-893.36218)">
    <text xml:space="preserve" style="font-size:40px;font-style:normal;font-weight:normal;line-height:125%;letter-spacing:0px;word-spacing:0px;fill:#000000;fill-opacity:1;stroke:none;font-family:Sans" x="-427.95984" y="-41.526199" id="text4044"><tspan id="tspan4046" x="-427.95984" y="-41.526199"></tspan></text>
    <rect style="fill:#ff0000;fill-opacity:1;stroke:#000080;stroke-width:0;stroke-miterlimit:4;stroke-opacity:1;stroke-dasharray:none" id="rect3103" width="460.74451" height="157.00533" x="-1174.5374" y="1174.4774"></rect>
    <rect style="fill:#ff0000;fill-opacity:1;stroke:#000080;stroke-width:0;stroke-miterlimit:4;stroke-opacity:1;stroke-dasharray:none" id="rect3109" width="468.10843" height="159.91283" x="-1165.9098" y="449.20773" transform="translate(0,722.36218)"></rect>
    <g id="g9291">
      <path d="m 88.343852,927.33779 9.333686,0 c -0.190504,0.34274 -0.338007,0.71956 -0.442511,1.13044 -0.104557,0.41092 -0.156822,0.97581 -0.156796,1.69468 l 0,10.78564 c -2.6e-5,0.77008 0.0428,1.33485 0.128486,1.69429 0.08563,0.35944 0.24257,0.73612 0.470821,1.13005 l -8.135073,0 c 0.190459,-0.3422 0.333172,-0.72737 0.42814,-1.15552 0.09493,-0.42814 0.142403,-0.98442 0.142422,-1.66882 l 0,-10.11795 -5.10892,12.94229 -4.824074,0 -4.909441,-12.94229 -0.05749,9.98943 c -4e-6,0.92421 0.03818,1.54892 0.114548,1.87414 0.07636,0.32522 0.266693,0.68479 0.570997,1.07872 l -4.3955,0 c 0.304298,-0.39393 0.494485,-0.7535 0.570561,-1.07872 0.07607,-0.32522 0.114111,-0.94993 0.114112,-1.87414 l 0,-10.52859 c -10e-7,-0.92472 -0.03804,-1.5497 -0.114112,-1.87493 -0.07608,-0.32521 -0.266263,-0.68478 -0.570561,-1.07872 l 9.590657,0 3.481731,9.32174 z" id="path9128" style="font-size:42.17200851px;font-style:normal;font-variant:normal;font-weight:normal;font-stretch:normal;line-height:125%;letter-spacing:0px;word-spacing:0px;fill:#000000;fill-opacity:1;stroke:none;font-family:Serpentine-Bold;-inkscape-font-specification:Serpentine-Bold"></path>
      <path d="m 99.831733,932.16597 c -10e-7,-1.71204 0.385307,-2.94475 1.155927,-3.69813 0.77062,-0.75335 1.92655,-1.13003 3.4678,-1.13005 l 10.44693,0 c 1.54181,2e-5 2.69803,0.37239 3.46867,1.11712 0.7706,0.74476 1.15591,1.98178 1.15593,3.71106 l 0,6.77952 c -2e-5,1.71154 -0.38533,2.94398 -1.15593,3.69735 -0.77064,0.75336 -1.92686,1.13005 -3.46867,1.13005 l -10.44693,0 c -1.54125,0 -2.69718,-0.37238 -3.4678,-1.11712 -0.77062,-0.74475 -1.155928,-1.9815 -1.155927,-3.71028 z m 6.964337,7.83199 c -1e-5,0.70217 0.45673,1.05325 1.37021,1.05325 l 3.02529,0 c 0.91346,0 1.3702,-0.35108 1.37022,-1.05325 l 0,-8.88524 c -2e-5,-0.70163 -0.45676,-1.05245 -1.37022,-1.05246 l -3.02529,0 c -0.91348,10e-6 -1.37022,0.35083 -1.37021,1.05246 z" id="path9130" style="font-size:42.17200851px;font-style:normal;font-variant:normal;font-weight:normal;font-stretch:normal;line-height:125%;letter-spacing:0px;word-spacing:0px;fill:#000000;fill-opacity:1;stroke:none;font-family:Serpentine-Bold;-inkscape-font-specification:Serpentine-Bold"></path>
      <path d="m 129.27008,941.05121 4.05317,0 c 0.45643,0 0.76088,-0.0557 0.91333,-0.16692 0.15243,-0.11128 0.22865,-0.36389 0.22866,-0.75781 l 0,-2.56809 c -1e-5,-0.37667 -0.0762,-0.62496 -0.22866,-0.74487 -0.15245,-0.1199 -0.4569,-0.17985 -0.91333,-0.17985 l -4.05317,0 z m 0,-7.13922 4.05317,0 c 0.45643,1e-5 0.76088,-0.0557 0.91333,-0.16693 0.15243,-0.11126 0.22865,-0.36387 0.22866,-0.75781 l 0,-2.00227 c -1e-5,-0.37667 -0.0762,-0.62496 -0.22866,-0.74487 -0.15245,-0.11989 -0.4569,-0.17984 -0.91333,-0.17985 l -4.05317,0 z m -6.9652,-3.74908 c 0,-0.75335 -0.0427,-1.31406 -0.12805,-1.68214 -0.0854,-0.36805 -0.23287,-0.74904 -0.44251,-1.14298 l 14.95742,0 c 1.80777,2e-5 3.04936,0.28684 3.72476,0.86046 0.67536,0.57367 1.01305,1.41689 1.01307,2.52969 l 0,1.87453 c -2e-5,0.99266 -0.32348,1.67733 -0.97039,2.054 -0.64694,0.37669 -1.64608,0.56503 -2.9974,0.56503 1.61788,0.20532 2.68365,0.45362 3.19732,0.74487 0.51363,0.29127 0.77045,0.85617 0.77047,1.69469 l 0,2.72246 c -2e-5,1.11281 -0.33771,1.95591 -1.01307,2.52929 -0.6754,0.57339 -1.91699,0.86008 -3.72476,0.86008 l -14.95742,0 c 0.19047,-0.3422 0.33319,-0.72737 0.42814,-1.15552 0.0949,-0.42814 0.14242,-0.98442 0.14242,-1.66882 z" id="path9132" style="font-size:42.17200851px;font-style:normal;font-variant:normal;font-weight:normal;font-stretch:normal;line-height:125%;letter-spacing:0px;word-spacing:0px;fill:#000000;fill-opacity:1;stroke:none;font-family:Serpentine-Bold;-inkscape-font-specification:Serpentine-Bold"></path>
      <path d="m 143.93482,943.77289 c 0.19048,-0.3422 0.33319,-0.72737 0.42814,-1.15552 0.095,-0.42814 0.14242,-0.98442 0.14242,-1.66882 l 0,-10.78564 c 0,-0.75335 -0.0428,-1.31406 -0.12848,-1.68214 -0.0857,-0.36805 -0.23302,-0.74904 -0.44208,-1.14298 l 8.10633,0 c -0.19049,0.34274 -0.3332,0.72804 -0.42814,1.15591 -0.095,0.4279 -0.14243,0.9843 -0.14243,1.66921 l 0,10.78564 c 0,0.75284 0.0428,1.3133 0.12849,1.68136 0.0856,0.36806 0.23301,0.74905 0.44208,1.14298 z" id="path9134" style="font-size:42.17200851px;font-style:normal;font-variant:normal;font-weight:normal;font-stretch:normal;line-height:125%;letter-spacing:0px;word-spacing:0px;fill:#000000;fill-opacity:1;stroke:none;font-family:Serpentine-Bold;-inkscape-font-specification:Serpentine-Bold"></path>
      <path d="m 168.15885,941.05121 c 0.74215,0 1.35119,-0.0471 1.82711,-0.14145 0.47589,-0.0943 0.86598,-0.22713 1.1703,-0.3985 l -0.5993,3.26163 -15.75621,0 c 0.1899,-0.3422 0.33246,-0.72737 0.4277,-1.15552 0.0952,-0.42814 0.14286,-0.98442 0.14286,-1.66882 l 0,-10.78564 c 0,-0.75335 -0.0428,-1.31406 -0.12849,-1.68214 -0.0856,-0.36805 -0.23301,-0.74904 -0.44207,-1.14298 l 8.10632,0 c -0.19048,0.34274 -0.33319,0.72804 -0.42813,1.15591 -0.095,0.4279 -0.14244,0.9843 -0.14242,1.66921 l 0,10.8883 z" id="path9136" style="font-size:42.17200851px;font-style:normal;font-variant:normal;font-weight:normal;font-stretch:normal;line-height:125%;letter-spacing:0px;word-spacing:0px;fill:#000000;fill-opacity:1;stroke:none;font-family:Serpentine-Bold;-inkscape-font-specification:Serpentine-Bold"></path>
      <path d="m 185.55183,941.05121 c 0.76073,0 1.33144,-0.03 1.71212,-0.0901 0.38065,-0.0601 0.85641,-0.17554 1.42728,-0.34638 l -0.62806,3.15819 -16.09854,0 c 0.19048,-0.3422 0.33319,-0.72737 0.42814,-1.15552 0.0949,-0.42814 0.14242,-0.98442 0.14242,-1.66882 l 0,-10.78564 c 0,-0.75335 -0.0427,-1.31406 -0.12805,-1.68214 -0.0854,-0.36805 -0.23287,-0.74904 -0.44251,-1.14298 l 15.81369,0 0.57057,3.15897 c -0.45647,-0.11963 -0.92265,-0.22229 -1.39853,-0.30799 -0.47592,-0.0857 -1.06579,-0.1285 -1.76961,-0.12851 l -5.68036,0 0,3.85173 4.96607,0 c 0.74215,1e-5 1.29877,-0.0299 1.66987,-0.0897 0.37107,-0.0598 0.8612,-0.1754 1.47039,-0.34678 l 0,3.59548 c -0.43788,-0.12016 -0.89941,-0.22308 -1.38459,-0.30877 -0.48521,-0.0857 -1.07043,-0.12852 -1.75567,-0.12852 l -4.96607,0 0,4.41754 z" id="path9138" style="font-size:42.17200851px;font-style:normal;font-variant:normal;font-weight:normal;font-stretch:normal;line-height:125%;letter-spacing:0px;word-spacing:0px;fill:#000000;fill-opacity:1;stroke:none;font-family:Serpentine-Bold;-inkscape-font-specification:Serpentine-Bold"></path>
      <path d="m 218.73498,930.59942 c -0.45705,-0.17135 -0.89491,-0.30405 -1.3136,-0.39811 -0.41871,-0.094 -0.92307,-0.14104 -1.51307,-0.14105 l -6.47914,0 c -0.55169,10e-6 -0.91319,0.0429 -1.0845,0.12851 -0.17132,0.0857 -0.25698,0.2824 -0.25697,0.59011 l 0,0.92473 c -1e-5,0.30825 0.0856,0.50522 0.25697,0.59088 0.17131,0.0857 0.53281,0.12853 1.0845,0.12852 l 4.93819,0 c 1.54122,10e-6 2.68772,0.2568 3.43948,0.77035 0.75173,0.51357 1.1276,1.36098 1.12762,2.54222 l 0,4.00533 c -2e-5,1.36986 -0.32348,2.38432 -0.97038,3.04338 -0.64695,0.65907 -1.77936,0.9886 -3.39725,0.9886 l -12.55931,0 -0.59931,-3.33843 c 0.4187,0.18861 0.8374,0.33855 1.25611,0.44983 0.41869,0.11128 0.91347,0.16692 1.48433,0.16692 l 6.73611,0 c 0.53309,0 0.8853,-0.0428 1.05662,-0.12853 0.1713,-0.0857 0.25696,-0.28264 0.25698,-0.59088 l 0,-1.13005 c -2e-5,-0.291 -0.0857,-0.48352 -0.25698,-0.57756 -0.17132,-0.094 -0.52353,-0.14106 -1.05662,-0.14106 l -5.68036,0 c -1.42684,0 -2.42568,-0.25678 -2.99654,-0.77035 -0.57084,-0.51356 -0.85627,-1.44665 -0.85627,-2.79927 l 0,-3.67227 c 0,-1.26691 0.33304,-2.23422 0.99914,-2.90192 0.66608,-0.66767 1.61731,-1.00151 2.85367,-1.00153 l 12.93041,0 z" id="path9140" style="font-size:42.17200851px;font-style:normal;font-variant:normal;font-weight:normal;font-stretch:normal;line-height:125%;letter-spacing:0px;word-spacing:0px;fill:#000000;fill-opacity:1;stroke:none;font-family:Serpentine-Bold;-inkscape-font-specification:Serpentine-Bold"></path>
      <path d="m 235.86402,941.05121 c 0.97095,0 1.56097,-0.0857 1.77005,-0.25705 0.20904,-0.17135 0.31357,-0.63372 0.31359,-1.38709 l 0,-9.11563 c -2e-5,-0.92472 -0.038,-1.5497 -0.11412,-1.87493 -0.0761,-0.32521 -0.26628,-0.68478 -0.57056,-1.07872 l 4.3955,0 c -0.30432,0.39394 -0.49451,0.75351 -0.57056,1.07872 -0.0761,0.32523 -0.11413,0.95021 -0.11411,1.87493 l 0,8.39701 c -2e-5,1.91737 -0.35688,3.24412 -1.07057,3.98025 -0.71373,0.73613 -2.06013,1.10419 -4.03922,1.10419 l -9.24745,0 c -1.77005,0 -3.05461,-0.41091 -3.85368,-1.23271 -0.79908,-0.8218 -1.19862,-2.10572 -1.19862,-3.85173 l 0,-8.52554 c 0,-0.75335 -0.0428,-1.31406 -0.12849,-1.68214 -0.0856,-0.36805 -0.2333,-0.74904 -0.44294,-1.14298 l 8.10633,0 c -0.18991,0.34274 -0.33248,0.72804 -0.42771,1.15591 -0.0952,0.4279 -0.14286,0.9843 -0.14286,1.66921 l 0,9.3476 c 0,1.02714 0.58043,1.5407 1.74131,1.5407 z" id="path9142" style="font-size:42.17200851px;font-style:normal;font-variant:normal;font-weight:normal;font-stretch:normal;line-height:125%;letter-spacing:0px;word-spacing:0px;fill:#000000;fill-opacity:1;stroke:none;font-family:Serpentine-Bold;-inkscape-font-specification:Serpentine-Bold"></path>
      <path d="m 243.83793,943.77289 c 0.19048,-0.3422 0.33319,-0.72737 0.42814,-1.15552 0.0949,-0.42814 0.14242,-0.98442 0.14242,-1.66882 l 0,-10.78564 c 0,-0.75335 -0.0428,-1.31406 -0.12848,-1.68214 -0.0857,-0.36805 -0.23302,-0.74904 -0.44208,-1.14298 l 8.10633,0 c -0.19049,0.34274 -0.3332,0.72804 -0.42814,1.15591 -0.095,0.4279 -0.14243,0.9843 -0.14242,1.66921 l 0,10.78564 c -1e-5,0.75284 0.0428,1.3133 0.12848,1.68136 0.0856,0.36806 0.23301,0.74905 0.44208,1.14298 z" id="path9144" style="font-size:42.17200851px;font-style:normal;font-variant:normal;font-weight:normal;font-stretch:normal;line-height:125%;letter-spacing:0px;word-spacing:0px;fill:#000000;fill-opacity:1;stroke:none;font-family:Serpentine-Bold;-inkscape-font-specification:Serpentine-Bold"></path>
      <path d="m 271.37297,927.33779 0.57143,3.39015 c -0.39955,-0.22255 -0.78487,-0.38947 -1.15593,-0.50077 -0.3711,-0.11126 -0.85165,-0.1669 -1.44165,-0.16691 l -3.16814,0 0,10.88829 c -10e-6,0.75284 0.0427,1.3133 0.12805,1.68136 0.0854,0.36806 0.23286,0.74905 0.44251,1.14298 l -8.10633,0 c 0.1899,-0.3422 0.33246,-0.72737 0.42771,-1.15552 0.0952,-0.42814 0.14285,-0.98442 0.14286,-1.66882 l 0,-10.88829 -3.16814,0 c -0.62777,10e-6 -1.09874,0.047 -1.41291,0.14105 -0.31416,0.0941 -0.70906,0.2696 -1.18467,0.52663 l 0.57056,-3.39015 z" id="path9146" style="font-size:42.17200851px;font-style:normal;font-variant:normal;font-weight:normal;font-stretch:normal;line-height:125%;letter-spacing:0px;word-spacing:0px;fill:#000000;fill-opacity:1;stroke:none;font-family:Serpentine-Bold;-inkscape-font-specification:Serpentine-Bold"></path>
      <g transform="matrix(0.41812085,0,-0.00863842,0.3792574,682.15588,770.54453)" style="fill:#ffcc00;fill-opacity:1;stroke:#aa8800;stroke-width:5.33888197;stroke-miterlimit:4;stroke-dasharray:none" id="g3015">
        <path style="fill:#ffcc00;fill-opacity:1;stroke:#aa8800;stroke-width:5.33888197;stroke-miterlimit:4;stroke-dasharray:none" d="m -788.79552,708.1605 212.51846,-279.66386 c 25.42399,-30.63917 62.58213,-35.20245 62.58213,-35.20245 l 2.60759,-6.51897 -142.76547,-1.30379 -2.60759,7.82276 c 83.36373,4.41866 59.32264,34.05683 59.32264,34.05683 l -115.04679,149.7605 22.58708,-192.68165 -128.60809,168.71168 c 0,0 46.97843,-21.78097 47.47897,-21.2042 11.95766,13.77877 -18.06893,176.22315 -18.06893,176.22315 z" id="path3011"></path>
        <path style="fill:#ffcc00;fill-opacity:1;stroke:#aa8800;stroke-width:5.33888197;stroke-miterlimit:4;stroke-dasharray:none" d="M -897.66234,707.5086 -771.1943,545.18622 c -52.15177,38.46193 -48.24038,16.94933 -48.24038,16.94933 l 14.99363,-138.20219 c 11.08225,-31.29107 43.02521,-28.03158 43.02521,-28.03158 l 4.74856,0.74356 5.53153,-10.6021 -183.69291,0.23048 -2.3048,9.21921 c 72.37086,0.46096 65.9174,33.65015 65.9174,33.65015 z" id="path3013"></path>
      </g>
      <g id="text2996-6" style="font-size:109.60970306px;font-style:normal;font-weight:normal;line-height:125%;letter-spacing:0px;word-spacing:0px;fill:#000080;fill-opacity:1;stroke:#000000;stroke-width:7.0999999;stroke-miterlimit:4;font-family:Sans" transform="matrix(0.56967305,0,-0.31736478,0.72346773,74.630428,633.26561)">
        <path id="path9149" style="font-variant:normal;font-stretch:normal;fill:#000080;stroke:#000000;font-family:Serpentine-Bold;-inkscape-font-specification:Serpentine-Bold" d="m 244.32869,467.87244 c -1.46074,2.33933 -2.37393,4.13003 -2.73957,5.37211 -0.3658,1.24215 -0.54866,3.10533 -0.54859,5.58953 l 0,17.31718 c -7e-5,4.45781 0.14599,7.3624 0.4382,8.71379 0.29206,1.35139 1.09598,3.05066 2.41176,5.09781 l -23.56568,0 -0.8764,-6.46593 c -0.87645,2.41065 -1.89947,4.09097 -3.06905,5.04095 -1.1697,0.94999 -3.47163,1.42498 -6.9058,1.42498 l -23.67607,0 c -5.91848,0 -10.35732,-1.58944 -13.31654,-4.76833 -2.95924,-3.17888 -4.43885,-8.45788 -4.43885,-15.83701 l 0,-28.93779 c 0,-7.3077 1.47961,-12.56942 4.43885,-15.78516 2.95922,-3.21562 7.39806,-4.82346 13.31654,-4.82353 l 51.29926,0 2.08061,13.48379 c -1.67928,-0.58421 -3.3044,-1.0408 -4.87537,-1.36979 -1.57112,-0.32886 -3.52628,-0.49333 -5.8655,-0.49339 l -28.38921,0 c -3.50785,6e-5 -5.26175,1.49752 -5.26172,4.49237 l 0,37.92587 c -3e-5,2.99715 1.75387,4.49572 5.26172,4.49571 l 8.98808,0 c 3.50776,1e-5 5.26167,-1.49856 5.26172,-4.49571 l 0,-14.36019 -9.97486,0 c -1.02362,3e-5 -1.91897,0.1645 -2.68605,0.49339 -0.76717,0.32896 -1.36927,0.60381 -1.80631,0.82455 l 0,-12.9352 z"></path>
        <path id="path9151" style="font-variant:normal;font-stretch:normal;fill:#000080;stroke:#000000;font-family:Serpentine-Bold;-inkscape-font-specification:Serpentine-Bold" d="m 306.78027,498.3456 c 3.72852,1e-5 5.99421,-0.36571 6.79708,-1.09717 0.80274,-0.73143 1.20414,-2.70499 1.20421,-5.92069 l 0,-38.9093 c -7e-5,-3.94707 -0.14613,-6.61472 -0.4382,-8.00297 -0.2922,-1.38812 -1.02252,-2.92293 -2.19099,-4.60443 l 16.87899,0 c -1.16861,1.6815 -1.89894,3.21631 -2.19099,4.60443 -0.29221,1.38825 -0.43828,4.0559 -0.4382,8.00297 l 0,35.84191 c -8e-5,8.18417 -1.37042,13.84729 -4.11103,16.98937 -2.74076,3.1421 -7.91105,4.71314 -15.51087,4.71314 l -35.51076,0 c -6.79711,0 -11.7299,-1.75391 -14.79838,-5.26172 -3.06851,-3.50781 -4.60276,-8.98806 -4.60275,-16.44079 l 0,-36.3905 c -1e-5,-3.21562 -0.16447,-5.60898 -0.4934,-7.18009 -0.32893,-1.57098 -0.89591,-3.19722 -1.70094,-4.87872 l 31.12878,0 c -0.72925,1.46296 -1.27671,3.1076 -1.6424,4.93391 -0.36576,1.82645 -0.54862,4.20141 -0.54859,7.1249 l 0,39.89943 c -3e-5,4.38423 2.22887,6.57633 6.6867,6.57632 z"></path>
        <path id="path9153" style="font-variant:normal;font-stretch:normal;fill:#000080;stroke:#000000;font-family:Serpentine-Bold;-inkscape-font-specification:Serpentine-Bold" d="m 349.45606,451.86985 -0.21742,45.48896 c -2e-5,3.94491 0.14605,6.61145 0.4382,7.99963 0.29211,1.38818 1.02244,2.92299 2.19099,4.60442 l -16.87899,0 c 1.16852,-1.68143 1.89885,-3.21624 2.19099,-4.60442 0.29213,-1.38818 0.43819,-4.05472 0.4382,-7.99963 l 0,-44.94037 c -10e-6,-3.94707 -0.14607,-6.61472 -0.4382,-8.00297 -0.29214,-1.38812 -1.02247,-2.92293 -2.19099,-4.60443 l 37.59471,0 28.49959,57.21662 0.32782,-44.60922 c -7e-5,-3.94707 -0.14614,-6.61472 -0.4382,-8.00297 -0.2922,-1.38812 -1.02253,-2.92293 -2.19099,-4.60443 l 16.87898,0 c -1.16861,1.6815 -1.89894,3.21631 -2.19099,4.60443 -0.29221,1.38825 -0.43828,4.0559 -0.4382,8.00297 l 0,57.54442 -34.6377,0 z"></path>
        <path id="path9155" style="font-variant:normal;font-stretch:normal;fill:#000080;stroke:#000000;font-family:Serpentine-Bold;-inkscape-font-specification:Serpentine-Bold" d="m 451.71006,498.3456 13.91864,0 c 2.19206,1e-5 3.5808,-0.32892 4.16623,-0.98679 0.58532,-0.65784 0.87801,-2.22888 0.87806,-4.71313 l 0,-35.51411 c -5e-5,-2.41282 -0.29274,-3.96602 -0.87806,-4.65961 -0.58543,-0.69348 -1.97417,-1.04025 -4.16623,-1.04031 l -13.91864,0 z m -26.7468,-46.47575 c -10e-6,-3.21562 -0.16391,-5.60898 -0.49172,-7.18009 -0.32782,-1.57098 -0.89424,-3.19722 -1.69927,-4.87872 l 54.47704,0 c 7.37905,7e-5 12.58502,1.51648 15.61791,4.54924 3.03274,3.03288 4.54915,8.16637 4.54923,15.40048 l 0,30.25238 c -8e-5,7.23419 -1.51649,12.36768 -4.54923,15.40049 -3.03289,3.03282 -8.23886,4.54923 -15.61791,4.54923 l -54.47704,0 c 0.73144,-1.46066 1.27947,-3.10474 1.64408,-4.93224 0.3646,-1.82749 0.5469,-4.20189 0.54691,-7.12322 z"></path>
        <path id="path9157" style="font-variant:normal;font-stretch:normal;fill:#000080;stroke:#000000;font-family:Serpentine-Bold;-inkscape-font-specification:Serpentine-Bold" d="m 550.55213,479.4897 -9.97486,-23.67272 -10.74087,23.67272 z m -26.19822,11.62061 -4.71313,9.6437 c -0.65788,1.31572 -0.9868,2.70502 -0.98679,4.1679 -10e-6,1.16853 0.0736,1.99029 0.22078,2.46528 0.14716,0.475 0.58536,1.33355 1.31459,2.57567 l -19.83933,0 c 2.11851,-2.70278 3.68956,-4.85808 4.71314,-6.46593 1.02357,-1.60783 2.11962,-3.69066 3.28815,-6.2485 l 25.53925,-53.49026 -3.06738,-3.94713 31.67736,0 24.99067,60.50477 c 1.53416,3.65501 3.5802,6.87068 6.13811,9.64705 l -35.18629,0 c 0.58421,-1.09717 0.98617,-1.99252 1.20588,-2.68605 0.2196,-0.69353 0.32943,-1.33243 0.32948,-1.9167 -5e-5,-1.97356 -0.32898,-3.72746 -0.98678,-5.26172 l -3.83674,-8.98808 z"></path>
        <path id="path9159" style="font-variant:normal;font-stretch:normal;fill:#000080;stroke:#000000;font-family:Serpentine-Bold;-inkscape-font-specification:Serpentine-Bold" d="m 659.77382,439.81104 35.84192,0 c -0.73155,1.46296 -1.29798,3.07136 -1.69928,4.8252 -0.4015,1.75397 -0.6022,4.16517 -0.6021,7.23361 l 0,46.03755 c -10e-5,3.28705 0.16436,5.69769 0.49339,7.23194 0.32883,1.53425 0.93149,3.14209 1.80799,4.82352 l -31.23917,0 c 0.73137,-1.46066 1.2794,-3.10474 1.64408,-4.93224 0.36453,-1.82749 0.54683,-4.20189 0.54691,-7.12322 l 0,-43.18759 -19.61856,55.24305 -18.52473,0 -18.85255,-55.24305 -0.22077,42.639 c -2e-5,3.94491 0.1466,6.61145 0.43987,7.99963 0.29323,1.38818 1.02411,2.92299 2.19266,4.60442 l -16.87899,0 c 1.16853,-1.68143 1.89886,-3.21624 2.19099,-4.60442 0.29213,-1.38818 0.4382,-4.05472 0.4382,-7.99963 l 0,-44.94037 c 0,-3.94707 -0.14607,-6.61472 -0.4382,-8.00297 -0.29213,-1.38812 -1.02246,-2.92293 -2.19099,-4.60443 l 36.8287,0 13.37006,39.78905 z"></path>
      </g>
      <g id="text2996" style="font-size:109.60970306px;font-style:normal;font-weight:normal;line-height:125%;letter-spacing:0px;word-spacing:0px;fill:#ff0000;fill-opacity:1;stroke:none;font-family:Sans" transform="matrix(0.56967305,0,-0.31736478,0.72346773,74.630428,633.26561)">
        <path id="path9162" style="font-variant:normal;font-stretch:normal;fill:#ff0000;font-family:Serpentine-Bold;-inkscape-font-specification:Serpentine-Bold" d="m 243.38961,467.14252 c -1.46074,2.33933 -2.37393,4.13003 -2.73958,5.37211 -0.3658,1.24215 -0.54866,3.10533 -0.54858,5.58953 l 0,17.31718 c -8e-5,4.45781 0.14599,7.3624 0.4382,8.71379 0.29205,1.35139 1.09597,3.05066 2.41176,5.09781 l -23.56569,0 -0.87639,-6.46593 c -0.87645,2.41065 -1.89947,4.09097 -3.06906,5.04095 -1.1697,0.94999 -3.47163,1.42498 -6.9058,1.42498 l -23.67607,0 c -5.91848,0 -10.35732,-1.58944 -13.31654,-4.76833 -2.95923,-3.17888 -4.43885,-8.45788 -4.43884,-15.83701 l 0,-28.93779 c -10e-6,-7.3077 1.47961,-12.56942 4.43884,-15.78516 2.95922,-3.21562 7.39806,-4.82345 13.31654,-4.82352 l 51.29927,0 2.0806,13.48378 c -1.67928,-0.58421 -3.3044,-1.0408 -4.87537,-1.36979 -1.57112,-0.32886 -3.52628,-0.49333 -5.8655,-0.49339 l -28.38921,0 c -3.50784,6e-5 -5.26175,1.49752 -5.26172,4.49237 l 0,37.92587 c -3e-5,2.99715 1.75388,4.49572 5.26172,4.49571 l 8.98808,0 c 3.50777,10e-6 5.26167,-1.49856 5.26172,-4.49571 l 0,-14.36019 -9.97486,0 c -1.02361,3e-5 -1.91896,0.1645 -2.68605,0.49339 -0.76716,0.32896 -1.36927,0.60381 -1.80631,0.82455 l 0,-12.9352 z"></path>
        <path id="path9164" style="font-variant:normal;font-stretch:normal;fill:#ff0000;font-family:Serpentine-Bold;-inkscape-font-specification:Serpentine-Bold" d="m 305.84118,497.61568 c 3.72852,10e-6 5.99422,-0.36571 6.79709,-1.09717 0.80273,-0.73143 1.20414,-2.70499 1.20421,-5.92069 l 0,-38.9093 c -7e-5,-3.94707 -0.14614,-6.61472 -0.4382,-8.00297 -0.2922,-1.38812 -1.02253,-2.92293 -2.19099,-4.60442 l 16.87898,0 c -1.16861,1.68149 -1.89894,3.2163 -2.19099,4.60442 -0.29221,1.38825 -0.43828,4.0559 -0.4382,8.00297 l 0,35.84191 c -8e-5,8.18417 -1.37042,13.84729 -4.11103,16.98937 -2.74076,3.1421 -7.91105,4.71314 -15.51087,4.71314 l -35.51076,0 c -6.7971,0 -11.72989,-1.7539 -14.79838,-5.26172 -3.06851,-3.50781 -4.60276,-8.98806 -4.60275,-16.44079 l 0,-36.3905 c -1e-5,-3.21562 -0.16447,-5.60898 -0.49339,-7.18009 -0.32893,-1.57098 -0.89591,-3.19722 -1.70095,-4.87871 l 31.12878,0 c -0.72924,1.46295 -1.27671,3.10759 -1.6424,4.9339 -0.36576,1.82645 -0.54862,4.20141 -0.54858,7.1249 l 0,39.89943 c -4e-5,4.38423 2.22886,6.57633 6.6867,6.57632 z"></path>
        <path id="path9166" style="font-variant:normal;font-stretch:normal;fill:#ff0000;font-family:Serpentine-Bold;-inkscape-font-specification:Serpentine-Bold" d="m 348.51698,451.13993 -0.21743,45.48897 c -2e-5,3.9449 0.14605,6.61144 0.4382,7.99962 0.29211,1.38818 1.02244,2.92299 2.19099,4.60442 l -16.87899,0 c 1.16853,-1.68143 1.89886,-3.21624 2.19099,-4.60442 0.29213,-1.38818 0.4382,-4.05472 0.4382,-7.99962 l 0,-44.94038 c 0,-3.94707 -0.14607,-6.61472 -0.4382,-8.00297 -0.29213,-1.38812 -1.02246,-2.92293 -2.19099,-4.60442 l 37.59471,0 28.4996,57.21661 0.32781,-44.60922 c -7e-5,-3.94707 -0.14614,-6.61472 -0.4382,-8.00297 -0.2922,-1.38812 -1.02253,-2.92293 -2.19099,-4.60442 l 16.87899,0 c -1.16861,1.68149 -1.89894,3.2163 -2.19099,4.60442 -0.29222,1.38825 -0.43828,4.0559 -0.4382,8.00297 l 0,57.54442 -34.63771,0 z"></path>
        <path id="path9168" style="font-variant:normal;font-stretch:normal;fill:#ff0000;font-family:Serpentine-Bold;-inkscape-font-specification:Serpentine-Bold" d="m 450.77097,497.61568 13.91864,0 c 2.19206,10e-6 3.5808,-0.32892 4.16623,-0.98678 0.58533,-0.65785 0.87802,-2.22889 0.87807,-4.71314 l 0,-35.51411 c -5e-5,-2.41282 -0.29274,-3.96602 -0.87807,-4.65961 -0.58543,-0.69348 -1.97417,-1.04025 -4.16623,-1.04031 l -13.91864,0 z m -26.7468,-46.47575 c 0,-3.21562 -0.16391,-5.60898 -0.49172,-7.18009 -0.32781,-1.57098 -0.89424,-3.19722 -1.69927,-4.87871 l 54.47704,0 c 7.37906,7e-5 12.58502,1.51647 15.61791,4.54923 3.03275,3.03288 4.54915,8.16637 4.54923,15.40048 l 0,30.25239 c -8e-5,7.23418 -1.51648,12.36767 -4.54923,15.40048 -3.03289,3.03282 -8.23885,4.54923 -15.61791,4.54923 l -54.47704,0 c 0.73144,-1.46066 1.27947,-3.10473 1.64408,-4.93224 0.3646,-1.82749 0.54691,-4.20189 0.54691,-7.12322 z"></path>
        <path id="path9170" style="font-variant:normal;font-stretch:normal;fill:#ff0000;font-family:Serpentine-Bold;-inkscape-font-specification:Serpentine-Bold" d="m 549.61304,478.75978 -9.97485,-23.67272 -10.74087,23.67272 z m -26.19821,11.62061 -4.71314,9.6437 c -0.65787,1.31572 -0.9868,2.70502 -0.98678,4.1679 -2e-5,1.16853 0.0736,1.99029 0.22077,2.46528 0.14716,0.475 0.58536,1.33355 1.31459,2.57567 l -19.83933,0 c 2.11852,-2.70277 3.68956,-4.85808 4.71314,-6.46593 1.02357,-1.60783 2.11962,-3.69066 3.28816,-6.2485 l 25.53925,-53.49026 -3.06739,-3.94712 31.67736,0 24.99067,60.50477 c 1.53416,3.655 3.5802,6.87067 6.13812,9.64704 l -35.1863,0 c 0.58421,-1.09717 0.98617,-1.99252 1.20588,-2.68605 0.2196,-0.69353 0.32943,-1.33243 0.32949,-1.9167 -6e-5,-1.97356 -0.32899,-3.72746 -0.98678,-5.26172 l -3.83675,-8.98808 z"></path>
        <path id="path9172" style="font-variant:normal;font-stretch:normal;fill:#ff0000;font-family:Serpentine-Bold;-inkscape-font-specification:Serpentine-Bold" d="m 658.83473,439.08113 35.84192,0 c -0.73155,1.46295 -1.29797,3.07135 -1.69927,4.82519 -0.40151,1.75397 -0.60221,4.16517 -0.60211,7.23361 l 0,46.03755 c -10e-5,3.28705 0.16437,5.69769 0.49339,7.23194 0.32883,1.53425 0.93149,3.14209 1.80799,4.82352 l -31.23917,0 c 0.73137,-1.46066 1.2794,-3.10473 1.64408,-4.93224 0.36453,-1.82749 0.54684,-4.20189 0.54691,-7.12322 l 0,-43.18759 -19.61856,55.24305 -18.52473,0 -18.85255,-55.24305 -0.22077,42.63901 c -2e-5,3.9449 0.1466,6.61144 0.43987,7.99962 0.29323,1.38818 1.02411,2.92299 2.19266,4.60442 l -16.87898,0 c 1.16852,-1.68143 1.89885,-3.21624 2.19099,-4.60442 0.29212,-1.38818 0.43819,-4.05472 0.4382,-7.99962 l 0,-44.94038 c -10e-6,-3.94707 -0.14608,-6.61472 -0.4382,-8.00297 -0.29214,-1.38812 -1.02247,-2.92293 -2.19099,-4.60442 l 36.8287,0 13.37005,39.78904 z"></path>
      </g>
      <g transform="matrix(0.56967305,0,-0.31736477,0.72346773,72.956405,632.55404)" style="font-size:29.16202545px;font-style:normal;font-weight:normal;line-height:125%;letter-spacing:0px;word-spacing:0px;fill:#000080;fill-opacity:1;stroke:#000000;stroke-width:3.88899994;stroke-miterlimit:4;font-family:Sans" id="text2996-6-0">
        <path d="m 723.87416,499.54763 -3.06233,12.36503 -6.7948,0 -4.16944,-16.24345 c -0.13646,-0.52506 -0.30673,-0.97226 -0.51083,-1.34161 -0.2041,-0.36931 -0.43252,-0.729 -0.68527,-1.07906 l 8.45724,0 c -0.0973,0.25276 -0.16049,0.45211 -0.18956,0.59804 -0.0291,0.14598 -0.0436,0.35511 -0.0436,0.62742 0,0.42779 0.01,0.72429 0.0289,0.88951 0.0193,0.16525 0.0874,0.48104 0.20424,0.94736 l 2.15814,8.98231 2.97423,-12.04464 7.11518,0 3.06234,12.07312 2.1875,-9.01079 c 0.0581,-0.25273 0.11152,-0.55888 0.1602,-0.91843 0.0486,-0.35953 0.073,-0.66567 0.073,-0.91844 -2e-5,-0.35003 -0.0147,-0.59313 -0.044,-0.72932 -0.0294,-0.13614 -0.10222,-0.30152 -0.21848,-0.49614 l 4.52007,0 c -0.33049,0.38922 -0.60267,0.81224 -0.81653,1.26907 -0.21391,0.45686 -0.38879,0.97689 -0.52463,1.56009 l -3.82057,15.83496 -6.88202,0 z" style="font-variant:normal;font-stretch:normal;fill:#000080;stroke:#000000;font-family:Serpentine-Bold;-inkscape-font-specification:Serpentine-Bold" id="path9175"></path>
        <path d="m 739.97166,511.91266 c 0.1946,-0.38861 0.34041,-0.82603 0.43741,-1.31224 0.097,-0.48621 0.14551,-1.11793 0.14551,-1.89516 l 0,-12.24844 c 0,-0.85553 -0.0438,-1.49229 -0.13127,-1.91029 -0.0875,-0.41796 -0.23806,-0.85063 -0.45165,-1.29799 l 8.28192,0 c -0.19462,0.38922 -0.34042,0.82678 -0.43742,1.31268 -0.097,0.48593 -0.14551,1.1178 -0.1455,1.8956 l 0,12.24844 c -10e-6,0.85495 0.0437,1.49142 0.13126,1.9094 0.0875,0.41798 0.23806,0.85065 0.45166,1.298 z" style="font-variant:normal;font-stretch:normal;fill:#000080;stroke:#000000;font-family:Serpentine-Bold;-inkscape-font-specification:Serpentine-Bold" id="path9177"></path>
        <path d="m 754.51351,496.45682 -0.0578,12.10249 c -10e-6,1.04956 0.0388,1.759 0.11658,2.12833 0.0777,0.36933 0.27202,0.77767 0.58292,1.22502 l -4.49071,0 c 0.31089,-0.44735 0.5052,-0.85569 0.58292,-1.22502 0.0777,-0.36933 0.11658,-1.07877 0.11658,-2.12833 l 0,-11.95654 c 0,-1.05013 -0.0389,-1.75986 -0.11658,-2.12921 -0.0777,-0.36932 -0.27203,-0.77766 -0.58292,-1.22502 l 10.0022,0 7.58241,15.22267 0.0872,-11.86844 c -10e-6,-1.05013 -0.0389,-1.75986 -0.11658,-2.12921 -0.0777,-0.36932 -0.27205,-0.77766 -0.58292,-1.22502 l 4.49071,0 c -0.31091,0.44736 -0.50522,0.8557 -0.58292,1.22502 -0.0777,0.36935 -0.11661,1.07908 -0.11658,2.12921 l 0,15.30989 -9.21548,0 z" style="font-variant:normal;font-stretch:normal;fill:#000080;stroke:#000000;font-family:Serpentine-Bold;-inkscape-font-specification:Serpentine-Bold" id="path9179"></path>
        <path d="m 794.60774,500.71436 c -0.38863,0.62239 -0.63159,1.09881 -0.72887,1.42927 -0.0973,0.33048 -0.14598,0.82618 -0.14596,1.48711 l 0,4.6073 c -2e-5,1.18601 0.0389,1.95879 0.11659,2.31833 0.0777,0.35954 0.29159,0.81164 0.64166,1.35629 l -6.26973,0 -0.23317,-1.72028 c -0.23318,0.64136 -0.50536,1.08841 -0.81653,1.34116 -0.31121,0.25275 -0.92364,0.37912 -1.83731,0.37912 l -6.2991,0 c -1.57463,0 -2.7556,-0.42288 -3.54291,-1.26863 -0.78732,-0.84575 -1.18097,-2.25025 -1.18097,-4.21349 l 0,-7.699 c 0,-1.94423 0.39365,-3.34413 1.18097,-4.19969 0.78731,-0.85553 1.96828,-1.2833 3.54291,-1.28331 l 13.64834,0 0.55355,3.5874 c -0.44678,-0.15543 -0.87915,-0.27691 -1.29711,-0.36443 -0.418,-0.0875 -0.93818,-0.13126 -1.56053,-0.13127 l -7.55305,0 c -0.93327,1e-5 -1.3999,0.39841 -1.39989,1.19521 l 0,10.0903 c -1e-5,0.7974 0.46662,1.1961 1.39989,1.1961 l 2.39131,0 c 0.93325,0 1.39989,-0.3987 1.3999,-1.1961 l 0,-3.82058 -2.65384,0 c -0.27234,1e-5 -0.51055,0.0438 -0.71464,0.13127 -0.2041,0.0875 -0.3643,0.16065 -0.48057,0.21938 l 0,-3.44146 z" style="font-variant:normal;font-stretch:normal;fill:#000080;stroke:#000000;font-family:Serpentine-Bold;-inkscape-font-specification:Serpentine-Bold" id="path9181"></path>
      </g>
      <g transform="matrix(0.56967305,0,-0.31736477,0.72346773,72.897769,632.67131)" style="font-size:29.16202545px;font-style:normal;font-weight:normal;line-height:125%;letter-spacing:0px;word-spacing:0px;fill:#ff0000;fill-opacity:1;stroke:none;font-family:Sans" id="text2996-4">
        <path d="m 723.59298,499.39373 -3.06234,12.36503 -6.7948,0 -4.16944,-16.24345 c -0.13646,-0.52506 -0.30673,-0.97226 -0.51083,-1.34161 -0.2041,-0.36931 -0.43252,-0.729 -0.68526,-1.07906 l 8.45723,0 c -0.0973,0.25276 -0.16049,0.45211 -0.18956,0.59804 -0.0291,0.14597 -0.0436,0.35511 -0.0436,0.62742 0,0.42779 0.01,0.72429 0.0289,0.88951 0.0193,0.16525 0.0874,0.48104 0.20424,0.94736 l 2.15814,8.98231 2.97423,-12.04464 7.11518,0 3.06234,12.07312 2.18751,-9.01079 c 0.0581,-0.25273 0.11151,-0.55888 0.16019,-0.91843 0.0486,-0.35953 0.0729,-0.66567 0.073,-0.91844 -2e-5,-0.35003 -0.0147,-0.59313 -0.044,-0.72932 -0.0294,-0.13614 -0.10222,-0.30152 -0.21848,-0.49614 l 4.52008,0 c -0.3305,0.38922 -0.60268,0.81224 -0.81654,1.26907 -0.21391,0.45686 -0.38879,0.97689 -0.52463,1.56009 l -3.82057,15.83496 -6.88202,0 z" style="font-variant:normal;font-stretch:normal;fill:#ff0000;font-family:Serpentine-Bold;-inkscape-font-specification:Serpentine-Bold" id="path9184"></path>
        <path d="m 739.69047,511.75876 c 0.1946,-0.38861 0.34041,-0.82603 0.43741,-1.31224 0.097,-0.48621 0.14551,-1.11793 0.14551,-1.89516 l 0,-12.24844 c 0,-0.85553 -0.0438,-1.49229 -0.13127,-1.91029 -0.0875,-0.41796 -0.23806,-0.85063 -0.45165,-1.29799 l 8.28192,0 c -0.19462,0.38922 -0.34042,0.82678 -0.43742,1.31268 -0.097,0.48593 -0.14551,1.1178 -0.1455,1.8956 l 0,12.24844 c -10e-6,0.85495 0.0437,1.49142 0.13126,1.9094 0.0875,0.41798 0.23806,0.85065 0.45166,1.298 z" style="font-variant:normal;font-stretch:normal;fill:#ff0000;font-family:Serpentine-Bold;-inkscape-font-specification:Serpentine-Bold" id="path9186"></path>
        <path d="m 754.23232,496.30292 -0.0578,12.10249 c -10e-6,1.04956 0.0389,1.759 0.11658,2.12833 0.0777,0.36933 0.27202,0.77767 0.58292,1.22502 l -4.49071,0 c 0.31089,-0.44735 0.5052,-0.85569 0.58292,-1.22502 0.0777,-0.36933 0.11658,-1.07877 0.11659,-2.12833 l 0,-11.95654 c -10e-6,-1.05013 -0.0389,-1.75986 -0.11659,-2.12921 -0.0777,-0.36932 -0.27203,-0.77766 -0.58292,-1.22502 l 10.0022,0 7.58241,15.22266 0.0872,-11.86843 c -2e-5,-1.05013 -0.0389,-1.75986 -0.11659,-2.12921 -0.0777,-0.36932 -0.27205,-0.77766 -0.58292,-1.22502 l 4.49071,0 c -0.31091,0.44736 -0.50522,0.8557 -0.58292,1.22502 -0.0777,0.36935 -0.1166,1.07908 -0.11658,2.12921 l 0,15.30989 -9.21548,0 z" style="font-variant:normal;font-stretch:normal;fill:#ff0000;font-family:Serpentine-Bold;-inkscape-font-specification:Serpentine-Bold" id="path9188"></path>
        <path d="m 794.32655,500.56046 c -0.38863,0.62239 -0.63159,1.09881 -0.72887,1.42927 -0.0973,0.33048 -0.14598,0.82618 -0.14595,1.48711 l 0,4.6073 c -3e-5,1.18601 0.0388,1.95879 0.11658,2.31833 0.0777,0.35954 0.29159,0.81164 0.64166,1.35629 l -6.26973,0 -0.23317,-1.72028 c -0.23318,0.64136 -0.50536,1.08841 -0.81653,1.34116 -0.3112,0.25275 -0.92364,0.37912 -1.83731,0.37912 l -6.2991,0 c -1.57463,0 -2.7556,-0.42288 -3.54291,-1.26863 -0.78731,-0.84575 -1.18097,-2.25025 -1.18097,-4.21349 l 0,-7.699 c 0,-1.94423 0.39366,-3.34413 1.18097,-4.19969 0.78731,-0.85553 1.96828,-1.2833 3.54291,-1.28331 l 13.64834,0 0.55355,3.5874 c -0.44678,-0.15543 -0.87914,-0.27691 -1.29711,-0.36444 -0.418,-0.0875 -0.93818,-0.13125 -1.56053,-0.13126 l -7.55305,0 c -0.93327,1e-5 -1.3999,0.39841 -1.39989,1.19521 l 0,10.0903 c -10e-6,0.7974 0.46662,1.1961 1.39989,1.1961 l 2.39131,0 c 0.93325,0 1.39989,-0.3987 1.3999,-1.1961 l 0,-3.82058 -2.65384,0 c -0.27234,10e-6 -0.51055,0.0438 -0.71464,0.13127 -0.2041,0.0875 -0.36429,0.16065 -0.48057,0.21938 l 0,-3.44146 z" style="font-variant:normal;font-stretch:normal;fill:#ff0000;font-family:Serpentine-Bold;-inkscape-font-specification:Serpentine-Bold" id="path9190"></path>
      </g>
    </g>
  </g>
</svg>