<svg width="52" height="42" viewBox="0 0 52 42" fill="none" xmlns="http://www.w3.org/2000/svg">
<path d="M47.7093 40.5748L33.7593 34.0925C31.8171 33.19 32.4604 30.2788 34.6021 30.2788L42.2188 30.2788L42.2188 11.5128L34.6021 11.5128C32.4604 11.5128 31.8171 8.60161 33.7593 7.69909L47.7093 1.21681C49.035 0.600792 50.5521 1.56873 50.5521 3.03056L50.5521 38.7611C50.5521 40.2229 49.035 41.1908 47.7093 40.5748Z" fill="black" stroke="black" stroke-width="1.10417"/>
<path d="M3.3949 1.21681L17.3449 7.69909C19.2871 8.60161 18.6437 11.5128 16.502 11.5128H8.88542V30.2788H16.502C18.6437 30.2788 19.2871 33.19 17.3448 34.0925L3.3949 40.5748C2.06921 41.1908 0.552086 40.2229 0.552086 38.7611V3.03056C0.552086 1.56873 2.06921 0.600793 3.3949 1.21681Z" fill="black" stroke="black" stroke-width="1.10417"/>
</svg>
