<svg width="135" height="147" viewBox="0 0 135 147" fill="none" xmlns="http://www.w3.org/2000/svg">
<g clip-path="url(#clip0_225_2)">
<path d="M134.047 112.854L113.87 74.7287C113.365 73.774 112.182 73.4096 111.227 73.9149L52.7288 104.873C51.774 105.378 51.4096 106.562 51.9149 107.516L72.0912 145.641C72.5964 146.596 73.78 146.961 74.7348 146.455L133.233 115.497C134.188 114.992 134.552 113.808 134.047 112.854Z" fill="black"></path>
<path d="M51.2594 54.1188L8.30231 50.2085C7.22656 50.1106 6.27511 50.9033 6.17719 51.979L0.177287 117.891C0.0793624 118.967 0.872047 119.918 1.9478 120.016L44.9048 123.927C45.9806 124.025 46.932 123.232 47.03 122.156L53.0299 56.2439C53.1278 55.1682 52.3351 54.2167 51.2594 54.1188Z" fill="black"></path>
<path d="M117.389 49.8882L86.8878 80.3891C86.7098 80.5669 86.4208 80.5671 86.2429 80.3891L39.4433 33.5895C39.2654 33.4116 39.2655 33.1226 39.4433 32.9446L69.9442 2.44369C70.1222 2.26567 70.4111 2.26566 70.5892 2.44369L117.389 49.2433C117.567 49.4213 117.567 49.7102 117.389 49.8882Z" stroke="black" stroke-width="3"></path>
</g>
<defs>
<clipPath id="clip0_225_2">
<rect width="135" height="147" fill="white"></rect>
</clipPath>
</defs>
</svg>